<svg xmlns="http://www.w3.org/2000/svg" viewBox="0 0 501.2 374.66"><defs><style>.cls-1{fill:#f9a51b;}.cls-2{fill:#004071;}.cls-3{fill:#ee4a36;}.cls-4{fill:#ffc800;}.cls-5{fill:#d8d8d8;}.cls-6{fill:#b5b5b4;}.cls-7{fill:#1a2e35;}.cls-8{fill:#002d53;}.cls-9{fill:#33669e;}</style></defs><g id="Capa_2" data-name="Capa 2"><g id="Navegador"><path class="cls-1" d="M487.3,374.66H13.9A13.89,13.89,0,0,1,0,360.77V359.5a13.9,13.9,0,0,1,13.9-13.9H487.3a13.9,13.9,0,0,1,13.9,13.9v1.27a13.89,13.89,0,0,1-13.9,13.89"/><path class="cls-2" d="M280.73,137.22c-1.19,4.34-2.49,8.43-3.84,12.26a51.87,51.87,0,0,0,40-10.11l-5.51-19.25-25.76-7.43a178.66,178.66,0,0,1-4.89,24.53"/><path class="cls-3" d="M293,146c16.84,5.72,33.49-7.67,52.22-4.17C351.94,143,359,146.5,372,160c19.21,19.91,38,88.05,62,143.57,6.19,14.36-5.65,29.8-22.81,29.75l-192-.6c-16.91-.05-28.61-15.15-22.79-29.39q8.19-40.28,16.37-80.55c7.88-14.82,17.39-32,28.81-51.51,4.27-7.27,12.46-20.89,24.91-25.36a44.15,44.15,0,0,1,14.35-2.34A52,52,0,0,1,293,146"/><path class="cls-4" d="M297.35,112.33c.4,19.91-1.62,30.07-3.93,35.62a11.51,11.51,0,0,0-.92,3.68c-.76,10,12.14,17.84,14.11,19,2.9,1.71,4.57,2.68,7.05,2.76,3.67.11,7.23-1.78,12.57-7.36,8.36-8.75,14.27-14.94,15-24.13.57-7-2.46-8.89-8.28-27.38-2.09-6.63-3.52-12.16-4.4-15.84l-31.22,13.64"/><path class="cls-4" d="M345.68,67.76c-.63,12.42-.94,18.63-3.79,24.61-9.35,19.68-31.17,24.87-34.92,25.76-6.62,1.58-21.2,4.88-32.63-3.43-8.83-6.42-11.22-16.45-13-24.45-5.29-23.74-1.63-60,23.42-78.3,4.53-3.32,15.43-11.3,29.39-9.41s22.59,12.69,25.05,16.14c8.36,11.74,7.72,24.49,6.48,49.08"/><path class="cls-2" d="M343.7,57.51a46,46,0,0,1-22.5-4.9C304.57,44.1,299,28,297.89,24.4a56.92,56.92,0,0,1-20.84,9.5,55.5,55.5,0,0,1-10.72,1.35,49,49,0,0,1,11.46-20.18c1.6-1.69,14-14.38,32.83-15S342.93,11.18,348.2,15.8c23.1,20.28,13.54,38.52,36.92,59.65,13.38,12.1,21.82,10.9,27.8,23.41.43.93,9.36,20.09-1.13,37.29-6,9.86-15.29,13.82-20.08,15.79-16.29,6.68-37,5-49.45-4.47-20.26-15.39-24.65-56,1.44-90"/><path class="cls-4" d="M346.88,75.77c-3.55,8.51-13.93,14.39-18.39,11.64-4.13-2.55-2.9-12.33-.19-18.49,3-6.76,10.08-14.55,15-12.9s6.75,12.17,3.59,19.75"/><path class="cls-5" d="M284.91,344.7c2,8.49-3.28,15.43-11.8,15.43H76.38c-8.52,0-17.14-6.94-19.17-15.43L21.31,194.44C19.28,186,24.59,179,33.1,179H229.84C238.35,179,247,186,249,194.44Z"/><path class="cls-6" d="M172.45,271.69c2.19,12.29-5.73,22.24-17.69,22.24s-23.45-9.95-25.64-22.24,5.73-22.24,17.7-22.24,23.44,10,25.63,22.24"/><path class="cls-7" d="M170.41,285.21a17.49,17.49,0,0,1-15.65,8.72c-12,0-23.44-10-25.64-22.24-1.16-6.54.54-12.43,4.2-16.5a20.91,20.91,0,0,0-3.28,8.49,22.27,22.27,0,0,0,.31,7.67,26.6,26.6,0,0,0,9.35,14.71c2.23,1.78,8.36,6.65,17,5.83a22.6,22.6,0,0,0,13.69-6.68"/><path class="cls-8" d="M256.83,8.44l3.22-1.65"/><path class="cls-4" d="M323.62,348.05a5.76,5.76,0,0,0-.08-2c-1.69-7.68-8.07-12.63-11.32-15.19-14.24-11.24-8.15-22.93-22-31.53-2.34-1.45-7.81-2.8-18.75-5.52-14.15-3.51-21.22-5.27-28.3-5-3.75.15-11.06,2.35-25.68,6.76-6.75,2-18.28,5.67-20.54,11.57a6,6,0,0,0-.24,4.22c.9,2.29,3.52,3.21,5,3.69,7.63,2.47,16.06-.63,15.18-.37-9.22,2.73-15.17,8.34-14.94,13.53a7.61,7.61,0,0,0,2.29,5c3.31,3,9.82,2.68,16-1.49-3.81,2.66-5.83,6.47-5.14,9.83a7.14,7.14,0,0,0,2.23,3.8c3.59,3.26,10.69,2.63,17.87-1.2-4,1.42-6.64,4.88-6.62,8.53a8.82,8.82,0,0,0,3,6.29c3.69,3.1,8.41,1.48,15.24,1.07,9-.55,9,1.77,23.69,3.13,6.64.61,12.7,1.17,20.19.42,12.4-1.24,31.78-6.39,32.87-15.52"/><path class="cls-7" d="M214.84,315.27a37.16,37.16,0,0,1,26.75-5.55,54.81,54.81,0,0,0-16.72,1.78,54.19,54.19,0,0,0-10,3.77"/><path class="cls-7" d="M219.17,332.4a29,29,0,0,1,25.13-6.8,45.16,45.16,0,0,0-14.62,2,44.57,44.57,0,0,0-10.51,4.81"/><path class="cls-7" d="M232.31,345.4a16.84,16.84,0,0,1,5.23-3.5,17.54,17.54,0,0,1,11.32-.63,27.62,27.62,0,0,0-16.55,4.13"/><path class="cls-2" d="M390.63,193.88s-11-29.82-25.75-41.71,37.25-19.32,37.25-19.32,34.49,33.69-11.5,61"/><path class="cls-7" d="M297.63,120.17a4.76,4.76,0,0,0,1.49,2c4.7,3.48,15.47-4.36,16.1-4.83a32.24,32.24,0,0,0,6.59-6.59,51,51,0,0,1-24.18,9.47"/><path class="cls-7" d="M342.5,59c-.12-.19-1.88.58-3.36,1.48A16,16,0,0,0,332,69.13a15.26,15.26,0,0,0-1.11,7.77c.09.69.24,1.7.63,1.75.68.1,1-2.8,3.44-4.7a3.84,3.84,0,0,1,2.7-1c1.57.19,2.37,1.86,2.59,1.71s-.41-2.81-2.07-3.32c-2-.62-3.93,2.32-4.77,1.78s0-4.63,2.47-8.11c2.86-4,6.82-5.73,6.65-6"/><path class="cls-3" d="M367.83,240.37c1,3.42,2,8,.52,13.06-2.86,9.73-14.75,13-24.75,14.61l-51,8.39c-5.73.94-12.2,2.38-15.08,7.42a19.44,19.44,0,0,0-1.92,6.78q-4.48,29.16-6.82,58.6c-.65,8.25-.31,18.25,6.8,22.48,3.38,2,7.53,2.12,11.47,2.09a259,259,0,0,0,155.16-53.92c11-8.54,21.88-18.92,24.78-32.54,2.26-10.55-.11-20.4-7.3-36.47-16.6-37.11-38.24-57.61-81.52-98.63-4.24-4-12.74-11.85-23.3-11-1.34.1-9.61.74-12.66,6.26-2.66,4.82,1.11,13.54,8.55,31,8.43,19.85,1.89,10.46,17,61.87"/><path class="cls-7" d="M371.32,254.1c-2.38,7.48-11.3,10.81-19.31,13.8-2.72,1-7.61,2.66-19.78,4.6-16.79,2.67-36.33,4.83-36.33,4.83-6.83.75-10.12,1.05-13.56,3.68-6.15,4.69-7.51,12.81-7.86,17.47-.51-3.39-.87-9.51,2.71-14.46,3.88-5.38,10.4-6.62,15.07-7.43,25.35-4.43,35.26-3.25,50.32-7.08,8.7-2.21,23.74-6,26.44-15.79,1.14-4.11,0-9.09-.77-12.72-1.5-6.85-4.36-11.35-3.21-18.4a20.22,20.22,0,0,1,.65-2.82,61.18,61.18,0,0,0,1.49,9.72c1.28,5.4,2.47,7.11,3.45,11.5s2,9,.69,13.1"/><path class="cls-7" d="M313.27,288.94a109.86,109.86,0,0,1-9.6,74.82,153.66,153.66,0,0,0,9.6-74.82"/><path class="cls-9" d="M72.63,256.81H58.38a.39.39,0,0,0-.42.34v30.59a.39.39,0,0,1-.42.34h-27a.39.39,0,0,1-.42-.34V257.15a.39.39,0,0,0-.42-.34H15.42c-.35,0-.55-.32-.34-.55l28.61-31.54a.46.46,0,0,1,.67,0L73,256.26c.2.23,0,.55-.34.55"/></g></g></svg>